<svg width="498" height="453" viewBox="0 0 498 453" fill="none" xmlns="http://www.w3.org/2000/svg">
<path d="M100.508 338.76H94.9396V354H92.6236V338.76H87.0436V336.804H100.508V338.76ZM104.492 343.464C105.012 342.912 105.588 342.472 106.22 342.144C106.852 341.816 107.58 341.652 108.404 341.652C109.068 341.652 109.652 341.764 110.156 341.988C110.668 342.204 111.092 342.516 111.428 342.924C111.772 343.324 112.032 343.808 112.208 344.376C112.384 344.944 112.472 345.572 112.472 346.26V354H110.324V346.26C110.324 345.34 110.112 344.628 109.688 344.124C109.272 343.612 108.636 343.356 107.78 343.356C107.148 343.356 106.556 343.508 106.004 343.812C105.46 344.116 104.956 344.528 104.492 345.048V354H102.344V336.324H104.492V343.464ZM123.863 346.596C123.863 346.1 123.791 345.648 123.647 345.24C123.511 344.824 123.307 344.468 123.035 344.172C122.771 343.868 122.447 343.636 122.063 343.476C121.679 343.308 121.243 343.224 120.755 343.224C119.731 343.224 118.919 343.524 118.319 344.124C117.727 344.716 117.359 345.54 117.215 346.596H123.863ZM125.591 352.296C125.327 352.616 125.011 352.896 124.643 353.136C124.275 353.368 123.879 353.56 123.455 353.712C123.039 353.864 122.607 353.976 122.159 354.048C121.711 354.128 121.267 354.168 120.827 354.168C119.987 354.168 119.211 354.028 118.499 353.748C117.795 353.46 117.183 353.044 116.663 352.5C116.151 351.948 115.751 351.268 115.463 350.46C115.175 349.652 115.031 348.724 115.031 347.676C115.031 346.828 115.159 346.036 115.415 345.3C115.679 344.564 116.055 343.928 116.543 343.392C117.031 342.848 117.627 342.424 118.331 342.12C119.035 341.808 119.827 341.652 120.707 341.652C121.435 341.652 122.107 341.776 122.723 342.024C123.347 342.264 123.883 342.616 124.331 343.08C124.787 343.536 125.143 344.104 125.399 344.784C125.655 345.456 125.783 346.224 125.783 347.088C125.783 347.424 125.747 347.648 125.675 347.76C125.603 347.872 125.467 347.928 125.267 347.928H117.143C117.167 348.696 117.271 349.364 117.455 349.932C117.647 350.5 117.911 350.976 118.247 351.36C118.583 351.736 118.983 352.02 119.447 352.212C119.911 352.396 120.431 352.488 121.007 352.488C121.543 352.488 122.003 352.428 122.387 352.308C122.779 352.18 123.115 352.044 123.395 351.9C123.675 351.756 123.907 351.624 124.091 351.504C124.283 351.376 124.447 351.312 124.583 351.312C124.759 351.312 124.895 351.38 124.991 351.516L125.591 352.296ZM130.435 344.28C130.819 343.448 131.291 342.8 131.851 342.336C132.411 341.864 133.095 341.628 133.903 341.628C134.159 341.628 134.403 341.656 134.635 341.712C134.875 341.768 135.087 341.856 135.271 341.976L135.115 343.572C135.067 343.772 134.947 343.872 134.755 343.872C134.643 343.872 134.479 343.848 134.263 343.8C134.047 343.752 133.803 343.728 133.531 343.728C133.147 343.728 132.803 343.784 132.499 343.896C132.203 344.008 131.935 344.176 131.695 344.4C131.463 344.616 131.251 344.888 131.059 345.216C130.875 345.536 130.707 345.904 130.555 346.32V354H128.407V341.844H129.631C129.863 341.844 130.023 341.888 130.111 341.976C130.199 342.064 130.259 342.216 130.291 342.432L130.435 344.28ZM144.793 346.596C144.793 346.1 144.721 345.648 144.577 345.24C144.441 344.824 144.237 344.468 143.965 344.172C143.701 343.868 143.377 343.636 142.993 343.476C142.609 343.308 142.173 343.224 141.685 343.224C140.661 343.224 139.849 343.524 139.249 344.124C138.657 344.716 138.289 345.54 138.145 346.596H144.793ZM146.521 352.296C146.257 352.616 145.941 352.896 145.573 353.136C145.205 353.368 144.809 353.56 144.385 353.712C143.969 353.864 143.537 353.976 143.089 354.048C142.641 354.128 142.197 354.168 141.757 354.168C140.917 354.168 140.141 354.028 139.429 353.748C138.725 353.46 138.113 353.044 137.593 352.5C137.081 351.948 136.681 351.268 136.393 350.46C136.105 349.652 135.961 348.724 135.961 347.676C135.961 346.828 136.089 346.036 136.345 345.3C136.609 344.564 136.985 343.928 137.473 343.392C137.961 342.848 138.557 342.424 139.261 342.12C139.965 341.808 140.757 341.652 141.637 341.652C142.365 341.652 143.037 341.776 143.653 342.024C144.277 342.264 144.813 342.616 145.261 343.08C145.717 343.536 146.073 344.104 146.329 344.784C146.585 345.456 146.713 346.224 146.713 347.088C146.713 347.424 146.677 347.648 146.605 347.76C146.533 347.872 146.397 347.928 146.197 347.928H138.073C138.097 348.696 138.201 349.364 138.385 349.932C138.577 350.5 138.841 350.976 139.177 351.36C139.513 351.736 139.913 352.02 140.377 352.212C140.841 352.396 141.361 352.488 141.937 352.488C142.473 352.488 142.933 352.428 143.317 352.308C143.709 352.18 144.045 352.044 144.325 351.9C144.605 351.756 144.837 351.624 145.021 351.504C145.213 351.376 145.377 351.312 145.513 351.312C145.689 351.312 145.825 351.38 145.921 351.516L146.521 352.296ZM162.065 348.528C161.081 348.56 160.241 348.64 159.545 348.768C158.857 348.888 158.293 349.048 157.853 349.248C157.421 349.448 157.105 349.684 156.905 349.956C156.713 350.228 156.617 350.532 156.617 350.868C156.617 351.188 156.669 351.464 156.773 351.696C156.877 351.928 157.017 352.12 157.193 352.272C157.377 352.416 157.589 352.524 157.829 352.596C158.077 352.66 158.341 352.692 158.621 352.692C158.997 352.692 159.341 352.656 159.653 352.584C159.965 352.504 160.257 352.392 160.529 352.248C160.809 352.104 161.073 351.932 161.321 351.732C161.577 351.532 161.825 351.304 162.065 351.048V348.528ZM155.165 343.56C155.837 342.912 156.561 342.428 157.337 342.108C158.113 341.788 158.973 341.628 159.917 341.628C160.597 341.628 161.201 341.74 161.729 341.964C162.257 342.188 162.701 342.5 163.061 342.9C163.421 343.3 163.693 343.784 163.877 344.352C164.061 344.92 164.153 345.544 164.153 346.224V354H163.205C162.997 354 162.837 353.968 162.725 353.904C162.613 353.832 162.525 353.696 162.461 353.496L162.221 352.344C161.901 352.64 161.589 352.904 161.285 353.136C160.981 353.36 160.661 353.552 160.325 353.712C159.989 353.864 159.629 353.98 159.245 354.06C158.869 354.148 158.449 354.192 157.985 354.192C157.513 354.192 157.069 354.128 156.653 354C156.237 353.864 155.873 353.664 155.561 353.4C155.257 353.136 155.013 352.804 154.829 352.404C154.653 351.996 154.565 351.516 154.565 350.964C154.565 350.484 154.697 350.024 154.961 349.584C155.225 349.136 155.653 348.74 156.245 348.396C156.837 348.052 157.609 347.772 158.561 347.556C159.513 347.332 160.681 347.204 162.065 347.172V346.224C162.065 345.28 161.861 344.568 161.453 344.088C161.045 343.6 160.449 343.356 159.665 343.356C159.137 343.356 158.693 343.424 158.333 343.56C157.981 343.688 157.673 343.836 157.409 344.004C157.153 344.164 156.929 344.312 156.737 344.448C156.553 344.576 156.369 344.64 156.185 344.64C156.041 344.64 155.917 344.604 155.813 344.532C155.709 344.452 155.621 344.356 155.549 344.244L155.165 343.56ZM169.435 344.28C169.819 343.448 170.291 342.8 170.851 342.336C171.411 341.864 172.095 341.628 172.903 341.628C173.159 341.628 173.403 341.656 173.635 341.712C173.875 341.768 174.087 341.856 174.271 341.976L174.115 343.572C174.067 343.772 173.947 343.872 173.755 343.872C173.643 343.872 173.479 343.848 173.263 343.8C173.047 343.752 172.803 343.728 172.531 343.728C172.147 343.728 171.803 343.784 171.499 343.896C171.203 344.008 170.935 344.176 170.695 344.4C170.463 344.616 170.251 344.888 170.059 345.216C169.875 345.536 169.707 345.904 169.555 346.32V354H167.407V341.844H168.631C168.863 341.844 169.023 341.888 169.111 341.976C169.199 342.064 169.259 342.216 169.291 342.432L169.435 344.28ZM183.793 346.596C183.793 346.1 183.721 345.648 183.577 345.24C183.441 344.824 183.237 344.468 182.965 344.172C182.701 343.868 182.377 343.636 181.993 343.476C181.609 343.308 181.173 343.224 180.685 343.224C179.661 343.224 178.849 343.524 178.249 344.124C177.657 344.716 177.289 345.54 177.145 346.596H183.793ZM185.521 352.296C185.257 352.616 184.941 352.896 184.573 353.136C184.205 353.368 183.809 353.56 183.385 353.712C182.969 353.864 182.537 353.976 182.089 354.048C181.641 354.128 181.197 354.168 180.757 354.168C179.917 354.168 179.141 354.028 178.429 353.748C177.725 353.46 177.113 353.044 176.593 352.5C176.081 351.948 175.681 351.268 175.393 350.46C175.105 349.652 174.961 348.724 174.961 347.676C174.961 346.828 175.089 346.036 175.345 345.3C175.609 344.564 175.985 343.928 176.473 343.392C176.961 342.848 177.557 342.424 178.261 342.12C178.965 341.808 179.757 341.652 180.637 341.652C181.365 341.652 182.037 341.776 182.653 342.024C183.277 342.264 183.813 342.616 184.261 343.08C184.717 343.536 185.073 344.104 185.329 344.784C185.585 345.456 185.713 346.224 185.713 347.088C185.713 347.424 185.677 347.648 185.605 347.76C185.533 347.872 185.397 347.928 185.197 347.928H177.073C177.097 348.696 177.201 349.364 177.385 349.932C177.577 350.5 177.841 350.976 178.177 351.36C178.513 351.736 178.913 352.02 179.377 352.212C179.841 352.396 180.361 352.488 180.937 352.488C181.473 352.488 181.933 352.428 182.317 352.308C182.709 352.18 183.045 352.044 183.325 351.9C183.605 351.756 183.837 351.624 184.021 351.504C184.213 351.376 184.377 351.312 184.513 351.312C184.689 351.312 184.825 351.38 184.921 351.516L185.521 352.296ZM196.493 343.608C196.757 343.312 197.037 343.044 197.333 342.804C197.629 342.564 197.941 342.36 198.269 342.192C198.605 342.016 198.957 341.884 199.325 341.796C199.701 341.7 200.105 341.652 200.537 341.652C201.201 341.652 201.785 341.764 202.289 341.988C202.801 342.204 203.225 342.516 203.561 342.924C203.905 343.324 204.165 343.808 204.341 344.376C204.517 344.944 204.605 345.572 204.605 346.26V354H202.457V346.26C202.457 345.34 202.245 344.628 201.821 344.124C201.405 343.612 200.769 343.356 199.913 343.356C199.281 343.356 198.689 343.508 198.137 343.812C197.593 344.116 197.089 344.528 196.625 345.048V354H194.477V341.844H195.761C196.065 341.844 196.253 341.992 196.325 342.288L196.493 343.608ZM212.984 341.652C213.872 341.652 214.672 341.8 215.384 342.096C216.096 342.392 216.704 342.812 217.208 343.356C217.712 343.9 218.096 344.56 218.36 345.336C218.632 346.104 218.768 346.964 218.768 347.916C218.768 348.876 218.632 349.74 218.36 350.508C218.096 351.276 217.712 351.932 217.208 352.476C216.704 353.02 216.096 353.44 215.384 353.736C214.672 354.024 213.872 354.168 212.984 354.168C212.088 354.168 211.28 354.024 210.56 353.736C209.848 353.44 209.24 353.02 208.736 352.476C208.232 351.932 207.844 351.276 207.572 350.508C207.308 349.74 207.176 348.876 207.176 347.916C207.176 346.964 207.308 346.104 207.572 345.336C207.844 344.56 208.232 343.9 208.736 343.356C209.24 342.812 209.848 342.392 210.56 342.096C211.28 341.8 212.088 341.652 212.984 341.652ZM212.984 352.5C214.184 352.5 215.08 352.1 215.672 351.3C216.264 350.492 216.56 349.368 216.56 347.928C216.56 346.48 216.264 345.352 215.672 344.544C215.08 343.736 214.184 343.332 212.984 343.332C212.376 343.332 211.844 343.436 211.388 343.644C210.94 343.852 210.564 344.152 210.26 344.544C209.964 344.936 209.74 345.42 209.588 345.996C209.444 346.564 209.372 347.208 209.372 347.928C209.372 349.368 209.668 350.492 210.26 351.3C210.86 352.1 211.768 352.5 212.984 352.5ZM237.448 341.844L232.492 354H230.572L225.616 341.844H227.356C227.532 341.844 227.676 341.888 227.788 341.976C227.9 342.064 227.976 342.168 228.016 342.288L231.1 350.112C231.196 350.408 231.28 350.696 231.352 350.976C231.424 351.256 231.492 351.536 231.556 351.816C231.62 351.536 231.688 351.256 231.76 350.976C231.832 350.696 231.92 350.408 232.024 350.112L235.144 342.288C235.192 342.16 235.272 342.056 235.384 341.976C235.496 341.888 235.628 341.844 235.78 341.844H237.448ZM245.737 348.528C244.753 348.56 243.913 348.64 243.217 348.768C242.529 348.888 241.965 349.048 241.525 349.248C241.093 349.448 240.777 349.684 240.577 349.956C240.385 350.228 240.289 350.532 240.289 350.868C240.289 351.188 240.341 351.464 240.445 351.696C240.549 351.928 240.689 352.12 240.865 352.272C241.049 352.416 241.261 352.524 241.501 352.596C241.749 352.66 242.013 352.692 242.293 352.692C242.669 352.692 243.013 352.656 243.325 352.584C243.637 352.504 243.929 352.392 244.201 352.248C244.481 352.104 244.745 351.932 244.993 351.732C245.249 351.532 245.497 351.304 245.737 351.048V348.528ZM238.837 343.56C239.509 342.912 240.233 342.428 241.009 342.108C241.785 341.788 242.645 341.628 243.589 341.628C244.269 341.628 244.873 341.74 245.401 341.964C245.929 342.188 246.373 342.5 246.733 342.9C247.093 343.3 247.365 343.784 247.549 344.352C247.733 344.92 247.825 345.544 247.825 346.224V354H246.877C246.669 354 246.509 353.968 246.397 353.904C246.285 353.832 246.197 353.696 246.133 353.496L245.893 352.344C245.573 352.64 245.261 352.904 244.957 353.136C244.653 353.36 244.333 353.552 243.997 353.712C243.661 353.864 243.301 353.98 242.917 354.06C242.541 354.148 242.121 354.192 241.657 354.192C241.185 354.192 240.741 354.128 240.325 354C239.909 353.864 239.545 353.664 239.233 353.4C238.929 353.136 238.685 352.804 238.501 352.404C238.325 351.996 238.237 351.516 238.237 350.964C238.237 350.484 238.369 350.024 238.633 349.584C238.897 349.136 239.325 348.74 239.917 348.396C240.509 348.052 241.281 347.772 242.233 347.556C243.185 347.332 244.353 347.204 245.737 347.172V346.224C245.737 345.28 245.533 344.568 245.125 344.088C244.717 343.6 244.121 343.356 243.337 343.356C242.809 343.356 242.365 343.424 242.005 343.56C241.653 343.688 241.345 343.836 241.081 344.004C240.825 344.164 240.601 344.312 240.409 344.448C240.225 344.576 240.041 344.64 239.857 344.64C239.713 344.64 239.589 344.604 239.485 344.532C239.381 344.452 239.293 344.356 239.221 344.244L238.837 343.56ZM259.539 344.004C259.475 344.092 259.411 344.16 259.347 344.208C259.283 344.256 259.195 344.28 259.083 344.28C258.963 344.28 258.831 344.232 258.687 344.136C258.543 344.032 258.363 343.92 258.147 343.8C257.939 343.68 257.679 343.572 257.367 343.476C257.063 343.372 256.687 343.32 256.239 343.32C255.639 343.32 255.111 343.428 254.655 343.644C254.199 343.852 253.815 344.156 253.503 344.556C253.199 344.956 252.967 345.44 252.807 346.008C252.655 346.576 252.579 347.212 252.579 347.916C252.579 348.652 252.663 349.308 252.831 349.884C252.999 350.452 253.235 350.932 253.539 351.324C253.851 351.708 254.223 352.004 254.655 352.212C255.095 352.412 255.587 352.512 256.131 352.512C256.651 352.512 257.079 352.452 257.415 352.332C257.751 352.204 258.027 352.064 258.243 351.912C258.467 351.76 258.651 351.624 258.795 351.504C258.947 351.376 259.095 351.312 259.239 351.312C259.415 351.312 259.551 351.38 259.647 351.516L260.247 352.296C259.983 352.624 259.683 352.904 259.347 353.136C259.011 353.368 258.647 353.564 258.255 353.724C257.871 353.876 257.467 353.988 257.043 354.06C256.619 354.132 256.187 354.168 255.747 354.168C254.987 354.168 254.279 354.028 253.623 353.748C252.975 353.468 252.411 353.064 251.931 352.536C251.451 352 251.075 351.344 250.803 350.568C250.531 349.792 250.395 348.908 250.395 347.916C250.395 347.012 250.519 346.176 250.767 345.408C251.023 344.64 251.391 343.98 251.871 343.428C252.359 342.868 252.955 342.432 253.659 342.12C254.371 341.808 255.187 341.652 256.107 341.652C256.963 341.652 257.715 341.792 258.363 342.072C259.019 342.344 259.599 342.732 260.103 343.236L259.539 344.004ZM270.789 344.004C270.725 344.092 270.661 344.16 270.597 344.208C270.533 344.256 270.445 344.28 270.333 344.28C270.213 344.28 270.081 344.232 269.937 344.136C269.793 344.032 269.613 343.92 269.397 343.8C269.189 343.68 268.929 343.572 268.617 343.476C268.313 343.372 267.937 343.32 267.489 343.32C266.889 343.32 266.361 343.428 265.905 343.644C265.449 343.852 265.065 344.156 264.753 344.556C264.449 344.956 264.217 345.44 264.057 346.008C263.905 346.576 263.829 347.212 263.829 347.916C263.829 348.652 263.913 349.308 264.081 349.884C264.249 350.452 264.485 350.932 264.789 351.324C265.101 351.708 265.473 352.004 265.905 352.212C266.345 352.412 266.837 352.512 267.381 352.512C267.901 352.512 268.329 352.452 268.665 352.332C269.001 352.204 269.277 352.064 269.493 351.912C269.717 351.76 269.901 351.624 270.045 351.504C270.197 351.376 270.345 351.312 270.489 351.312C270.665 351.312 270.801 351.38 270.897 351.516L271.497 352.296C271.233 352.624 270.933 352.904 270.597 353.136C270.261 353.368 269.897 353.564 269.505 353.724C269.121 353.876 268.717 353.988 268.293 354.06C267.869 354.132 267.437 354.168 266.997 354.168C266.237 354.168 265.529 354.028 264.873 353.748C264.225 353.468 263.661 353.064 263.181 352.536C262.701 352 262.325 351.344 262.053 350.568C261.781 349.792 261.645 348.908 261.645 347.916C261.645 347.012 261.769 346.176 262.017 345.408C262.273 344.64 262.641 343.98 263.121 343.428C263.609 342.868 264.205 342.432 264.909 342.12C265.621 341.808 266.437 341.652 267.357 341.652C268.213 341.652 268.965 341.792 269.613 342.072C270.269 342.344 270.849 342.732 271.353 343.236L270.789 344.004ZM276.046 341.844V354H273.91V341.844H276.046ZM276.502 338.028C276.502 338.236 276.458 338.432 276.37 338.616C276.29 338.792 276.178 338.952 276.034 339.096C275.898 339.232 275.734 339.34 275.542 339.42C275.358 339.5 275.162 339.54 274.954 339.54C274.746 339.54 274.55 339.5 274.366 339.42C274.19 339.34 274.034 339.232 273.898 339.096C273.762 338.952 273.654 338.792 273.574 338.616C273.494 338.432 273.454 338.236 273.454 338.028C273.454 337.82 273.494 337.624 273.574 337.44C273.654 337.248 273.762 337.084 273.898 336.948C274.034 336.804 274.19 336.692 274.366 336.612C274.55 336.532 274.746 336.492 274.954 336.492C275.162 336.492 275.358 336.532 275.542 336.612C275.734 336.692 275.898 336.804 276.034 336.948C276.178 337.084 276.29 337.248 276.37 337.44C276.458 337.624 276.502 337.82 276.502 338.028ZM281.571 343.608C281.835 343.312 282.115 343.044 282.411 342.804C282.707 342.564 283.019 342.36 283.347 342.192C283.683 342.016 284.035 341.884 284.403 341.796C284.779 341.7 285.183 341.652 285.615 341.652C286.279 341.652 286.863 341.764 287.367 341.988C287.879 342.204 288.303 342.516 288.639 342.924C288.983 343.324 289.243 343.808 289.419 344.376C289.595 344.944 289.683 345.572 289.683 346.26V354H287.535V346.26C287.535 345.34 287.323 344.628 286.899 344.124C286.483 343.612 285.847 343.356 284.991 343.356C284.359 343.356 283.767 343.508 283.215 343.812C282.671 344.116 282.167 344.528 281.703 345.048V354H279.555V341.844H280.839C281.143 341.844 281.331 341.992 281.403 342.288L281.571 343.608ZM301.074 346.596C301.074 346.1 301.002 345.648 300.858 345.24C300.722 344.824 300.518 344.468 300.246 344.172C299.982 343.868 299.658 343.636 299.274 343.476C298.89 343.308 298.454 343.224 297.966 343.224C296.942 343.224 296.13 343.524 295.53 344.124C294.938 344.716 294.57 345.54 294.426 346.596H301.074ZM302.802 352.296C302.538 352.616 302.222 352.896 301.854 353.136C301.486 353.368 301.09 353.56 300.666 353.712C300.25 353.864 299.818 353.976 299.37 354.048C298.922 354.128 298.478 354.168 298.038 354.168C297.198 354.168 296.422 354.028 295.71 353.748C295.006 353.46 294.394 353.044 293.874 352.5C293.362 351.948 292.962 351.268 292.674 350.46C292.386 349.652 292.242 348.724 292.242 347.676C292.242 346.828 292.37 346.036 292.626 345.3C292.89 344.564 293.266 343.928 293.754 343.392C294.242 342.848 294.838 342.424 295.542 342.12C296.246 341.808 297.038 341.652 297.918 341.652C298.646 341.652 299.318 341.776 299.934 342.024C300.558 342.264 301.094 342.616 301.542 343.08C301.998 343.536 302.354 344.104 302.61 344.784C302.866 345.456 302.994 346.224 302.994 347.088C302.994 347.424 302.958 347.648 302.886 347.76C302.814 347.872 302.678 347.928 302.478 347.928H294.354C294.378 348.696 294.482 349.364 294.666 349.932C294.858 350.5 295.122 350.976 295.458 351.36C295.794 351.736 296.194 352.02 296.658 352.212C297.122 352.396 297.642 352.488 298.218 352.488C298.754 352.488 299.214 352.428 299.598 352.308C299.99 352.18 300.326 352.044 300.606 351.9C300.886 351.756 301.118 351.624 301.302 351.504C301.494 351.376 301.658 351.312 301.794 351.312C301.97 351.312 302.106 351.38 302.202 351.516L302.802 352.296ZM312.698 343.848C312.602 344.024 312.454 344.112 312.254 344.112C312.134 344.112 311.998 344.068 311.846 343.98C311.694 343.892 311.506 343.796 311.282 343.692C311.066 343.58 310.806 343.48 310.502 343.392C310.198 343.296 309.838 343.248 309.422 343.248C309.062 343.248 308.738 343.296 308.45 343.392C308.162 343.48 307.914 343.604 307.706 343.764C307.506 343.924 307.35 344.112 307.238 344.328C307.134 344.536 307.082 344.764 307.082 345.012C307.082 345.324 307.17 345.584 307.346 345.792C307.53 346 307.77 346.18 308.066 346.332C308.362 346.484 308.698 346.62 309.074 346.74C309.45 346.852 309.834 346.976 310.226 347.112C310.626 347.24 311.014 347.384 311.39 347.544C311.766 347.704 312.102 347.904 312.398 348.144C312.694 348.384 312.93 348.68 313.106 349.032C313.29 349.376 313.382 349.792 313.382 350.28C313.382 350.84 313.282 351.36 313.082 351.84C312.882 352.312 312.586 352.724 312.194 353.076C311.802 353.42 311.322 353.692 310.754 353.892C310.186 354.092 309.53 354.192 308.786 354.192C307.938 354.192 307.17 354.056 306.482 353.784C305.794 353.504 305.21 353.148 304.73 352.716L305.234 351.9C305.298 351.796 305.374 351.716 305.462 351.66C305.55 351.604 305.662 351.576 305.798 351.576C305.942 351.576 306.094 351.632 306.254 351.744C306.414 351.856 306.606 351.98 306.83 352.116C307.062 352.252 307.342 352.376 307.67 352.488C307.998 352.6 308.406 352.656 308.894 352.656C309.31 352.656 309.674 352.604 309.986 352.5C310.298 352.388 310.558 352.24 310.766 352.056C310.974 351.872 311.126 351.66 311.222 351.42C311.326 351.18 311.378 350.924 311.378 350.652C311.378 350.316 311.286 350.04 311.102 349.824C310.926 349.6 310.69 349.412 310.394 349.26C310.098 349.1 309.758 348.964 309.374 348.852C308.998 348.732 308.61 348.608 308.21 348.48C307.818 348.352 307.43 348.208 307.046 348.048C306.67 347.88 306.334 347.672 306.038 347.424C305.742 347.176 305.502 346.872 305.318 346.512C305.142 346.144 305.054 345.7 305.054 345.18C305.054 344.716 305.15 344.272 305.342 343.848C305.534 343.416 305.814 343.04 306.182 342.72C306.55 342.392 307.002 342.132 307.538 341.94C308.074 341.748 308.686 341.652 309.374 341.652C310.174 341.652 310.89 341.78 311.522 342.036C312.162 342.284 312.714 342.628 313.178 343.068L312.698 343.848ZM328.729 348.528C327.745 348.56 326.905 348.64 326.209 348.768C325.521 348.888 324.957 349.048 324.517 349.248C324.085 349.448 323.769 349.684 323.569 349.956C323.377 350.228 323.281 350.532 323.281 350.868C323.281 351.188 323.333 351.464 323.437 351.696C323.541 351.928 323.681 352.12 323.857 352.272C324.041 352.416 324.253 352.524 324.493 352.596C324.741 352.66 325.005 352.692 325.285 352.692C325.661 352.692 326.005 352.656 326.317 352.584C326.629 352.504 326.921 352.392 327.193 352.248C327.473 352.104 327.737 351.932 327.985 351.732C328.241 351.532 328.489 351.304 328.729 351.048V348.528ZM321.829 343.56C322.501 342.912 323.225 342.428 324.001 342.108C324.777 341.788 325.637 341.628 326.581 341.628C327.261 341.628 327.865 341.74 328.393 341.964C328.921 342.188 329.365 342.5 329.725 342.9C330.085 343.3 330.357 343.784 330.541 344.352C330.725 344.92 330.817 345.544 330.817 346.224V354H329.869C329.661 354 329.501 353.968 329.389 353.904C329.277 353.832 329.189 353.696 329.125 353.496L328.885 352.344C328.565 352.64 328.253 352.904 327.949 353.136C327.645 353.36 327.325 353.552 326.989 353.712C326.653 353.864 326.293 353.98 325.909 354.06C325.533 354.148 325.113 354.192 324.649 354.192C324.177 354.192 323.733 354.128 323.317 354C322.901 353.864 322.537 353.664 322.225 353.4C321.921 353.136 321.677 352.804 321.493 352.404C321.317 351.996 321.229 351.516 321.229 350.964C321.229 350.484 321.361 350.024 321.625 349.584C321.889 349.136 322.317 348.74 322.909 348.396C323.501 348.052 324.273 347.772 325.225 347.556C326.177 347.332 327.345 347.204 328.729 347.172V346.224C328.729 345.28 328.525 344.568 328.117 344.088C327.709 343.6 327.113 343.356 326.329 343.356C325.801 343.356 325.357 343.424 324.997 343.56C324.645 343.688 324.337 343.836 324.073 344.004C323.817 344.164 323.593 344.312 323.401 344.448C323.217 344.576 323.033 344.64 322.849 344.64C322.705 344.64 322.581 344.604 322.477 344.532C322.373 344.452 322.285 344.356 322.213 344.244L321.829 343.56ZM344.229 341.844L339.273 354H337.353L332.397 341.844H334.137C334.313 341.844 334.457 341.888 334.569 341.976C334.681 342.064 334.757 342.168 334.797 342.288L337.881 350.112C337.977 350.408 338.061 350.696 338.133 350.976C338.205 351.256 338.273 351.536 338.337 351.816C338.401 351.536 338.469 351.256 338.541 350.976C338.613 350.696 338.701 350.408 338.805 350.112L341.925 342.288C341.973 342.16 342.053 342.056 342.165 341.976C342.277 341.888 342.409 341.844 342.561 341.844H344.229ZM352.518 348.528C351.534 348.56 350.694 348.64 349.998 348.768C349.31 348.888 348.746 349.048 348.306 349.248C347.874 349.448 347.558 349.684 347.358 349.956C347.166 350.228 347.07 350.532 347.07 350.868C347.07 351.188 347.122 351.464 347.226 351.696C347.33 351.928 347.47 352.12 347.646 352.272C347.83 352.416 348.042 352.524 348.282 352.596C348.53 352.66 348.794 352.692 349.074 352.692C349.45 352.692 349.794 352.656 350.106 352.584C350.418 352.504 350.71 352.392 350.982 352.248C351.262 352.104 351.526 351.932 351.774 351.732C352.03 351.532 352.278 351.304 352.518 351.048V348.528ZM345.618 343.56C346.29 342.912 347.014 342.428 347.79 342.108C348.566 341.788 349.426 341.628 350.37 341.628C351.05 341.628 351.654 341.74 352.182 341.964C352.71 342.188 353.154 342.5 353.514 342.9C353.874 343.3 354.146 343.784 354.33 344.352C354.514 344.92 354.606 345.544 354.606 346.224V354H353.658C353.45 354 353.29 353.968 353.178 353.904C353.066 353.832 352.978 353.696 352.914 353.496L352.674 352.344C352.354 352.64 352.042 352.904 351.738 353.136C351.434 353.36 351.114 353.552 350.778 353.712C350.442 353.864 350.082 353.98 349.698 354.06C349.322 354.148 348.902 354.192 348.438 354.192C347.966 354.192 347.522 354.128 347.106 354C346.69 353.864 346.326 353.664 346.014 353.4C345.71 353.136 345.466 352.804 345.282 352.404C345.106 351.996 345.018 351.516 345.018 350.964C345.018 350.484 345.15 350.024 345.414 349.584C345.678 349.136 346.106 348.74 346.698 348.396C347.29 348.052 348.062 347.772 349.014 347.556C349.966 347.332 351.134 347.204 352.518 347.172V346.224C352.518 345.28 352.314 344.568 351.906 344.088C351.498 343.6 350.902 343.356 350.118 343.356C349.59 343.356 349.146 343.424 348.786 343.56C348.434 343.688 348.126 343.836 347.862 344.004C347.606 344.164 347.382 344.312 347.19 344.448C347.006 344.576 346.822 344.64 346.638 344.64C346.494 344.64 346.37 344.604 346.266 344.532C346.162 344.452 346.074 344.356 346.002 344.244L345.618 343.56ZM360.116 341.844V354H357.98V341.844H360.116ZM360.572 338.028C360.572 338.236 360.528 338.432 360.44 338.616C360.36 338.792 360.248 338.952 360.104 339.096C359.968 339.232 359.804 339.34 359.612 339.42C359.428 339.5 359.232 339.54 359.024 339.54C358.816 339.54 358.62 339.5 358.436 339.42C358.26 339.34 358.104 339.232 357.968 339.096C357.832 338.952 357.724 338.792 357.644 338.616C357.564 338.432 357.524 338.236 357.524 338.028C357.524 337.82 357.564 337.624 357.644 337.44C357.724 337.248 357.832 337.084 357.968 336.948C358.104 336.804 358.26 336.692 358.436 336.612C358.62 336.532 358.816 336.492 359.024 336.492C359.232 336.492 359.428 336.532 359.612 336.612C359.804 336.692 359.968 336.804 360.104 336.948C360.248 337.084 360.36 337.248 360.44 337.44C360.528 337.624 360.572 337.82 360.572 338.028ZM365.834 336.324V354H363.698V336.324H365.834ZM375.885 348.528C374.901 348.56 374.061 348.64 373.365 348.768C372.677 348.888 372.113 349.048 371.673 349.248C371.241 349.448 370.925 349.684 370.725 349.956C370.533 350.228 370.437 350.532 370.437 350.868C370.437 351.188 370.489 351.464 370.593 351.696C370.697 351.928 370.837 352.12 371.013 352.272C371.197 352.416 371.409 352.524 371.649 352.596C371.897 352.66 372.161 352.692 372.441 352.692C372.817 352.692 373.161 352.656 373.473 352.584C373.785 352.504 374.077 352.392 374.349 352.248C374.629 352.104 374.893 351.932 375.141 351.732C375.397 351.532 375.645 351.304 375.885 351.048V348.528ZM368.985 343.56C369.657 342.912 370.381 342.428 371.157 342.108C371.933 341.788 372.793 341.628 373.737 341.628C374.417 341.628 375.021 341.74 375.549 341.964C376.077 342.188 376.521 342.5 376.881 342.9C377.241 343.3 377.513 343.784 377.697 344.352C377.881 344.92 377.973 345.544 377.973 346.224V354H377.025C376.817 354 376.657 353.968 376.545 353.904C376.433 353.832 376.345 353.696 376.281 353.496L376.041 352.344C375.721 352.64 375.409 352.904 375.105 353.136C374.801 353.36 374.481 353.552 374.145 353.712C373.809 353.864 373.449 353.98 373.065 354.06C372.689 354.148 372.269 354.192 371.805 354.192C371.333 354.192 370.889 354.128 370.473 354C370.057 353.864 369.693 353.664 369.381 353.4C369.077 353.136 368.833 352.804 368.649 352.404C368.473 351.996 368.385 351.516 368.385 350.964C368.385 350.484 368.517 350.024 368.781 349.584C369.045 349.136 369.473 348.74 370.065 348.396C370.657 348.052 371.429 347.772 372.381 347.556C373.333 347.332 374.501 347.204 375.885 347.172V346.224C375.885 345.28 375.681 344.568 375.273 344.088C374.865 343.6 374.269 343.356 373.485 343.356C372.957 343.356 372.513 343.424 372.153 343.56C371.801 343.688 371.493 343.836 371.229 344.004C370.973 344.164 370.749 344.312 370.557 344.448C370.373 344.576 370.189 344.64 370.005 344.64C369.861 344.64 369.737 344.604 369.633 344.532C369.529 344.452 369.441 344.356 369.369 344.244L368.985 343.56ZM383.375 351.072C383.767 351.6 384.195 351.972 384.659 352.188C385.131 352.404 385.647 352.512 386.207 352.512C387.351 352.512 388.227 352.108 388.835 351.3C389.443 350.492 389.747 349.288 389.747 347.688C389.747 346.2 389.475 345.108 388.931 344.412C388.395 343.708 387.627 343.356 386.627 343.356C385.931 343.356 385.323 343.516 384.803 343.836C384.291 344.156 383.815 344.608 383.375 345.192V351.072ZM383.375 343.596C383.887 343.004 384.463 342.532 385.103 342.18C385.751 341.828 386.495 341.652 387.335 341.652C388.047 341.652 388.687 341.788 389.255 342.06C389.831 342.332 390.319 342.728 390.719 343.248C391.119 343.76 391.423 344.384 391.631 345.12C391.847 345.856 391.955 346.684 391.955 347.604C391.955 348.588 391.835 349.484 391.595 350.292C391.355 351.1 391.007 351.792 390.551 352.368C390.103 352.936 389.555 353.38 388.907 353.7C388.259 354.012 387.531 354.168 386.723 354.168C385.923 354.168 385.247 354.02 384.695 353.724C384.151 353.42 383.675 352.992 383.267 352.44L383.159 353.544C383.095 353.848 382.911 354 382.607 354H381.227V336.324H383.375V343.596ZM396.865 336.324V354H394.729V336.324H396.865ZM408.465 346.596C408.465 346.1 408.393 345.648 408.249 345.24C408.113 344.824 407.909 344.468 407.637 344.172C407.373 343.868 407.049 343.636 406.665 343.476C406.281 343.308 405.845 343.224 405.357 343.224C404.333 343.224 403.521 343.524 402.921 344.124C402.329 344.716 401.961 345.54 401.817 346.596H408.465ZM410.193 352.296C409.929 352.616 409.613 352.896 409.245 353.136C408.877 353.368 408.481 353.56 408.057 353.712C407.641 353.864 407.209 353.976 406.761 354.048C406.313 354.128 405.869 354.168 405.429 354.168C404.589 354.168 403.813 354.028 403.101 353.748C402.397 353.46 401.785 353.044 401.265 352.5C400.753 351.948 400.353 351.268 400.065 350.46C399.777 349.652 399.633 348.724 399.633 347.676C399.633 346.828 399.761 346.036 400.017 345.3C400.281 344.564 400.657 343.928 401.145 343.392C401.633 342.848 402.229 342.424 402.933 342.12C403.637 341.808 404.429 341.652 405.309 341.652C406.037 341.652 406.709 341.776 407.325 342.024C407.949 342.264 408.485 342.616 408.933 343.08C409.389 343.536 409.745 344.104 410.001 344.784C410.257 345.456 410.385 346.224 410.385 347.088C410.385 347.424 410.349 347.648 410.277 347.76C410.205 347.872 410.069 347.928 409.869 347.928H401.745C401.769 348.696 401.873 349.364 402.057 349.932C402.249 350.5 402.513 350.976 402.849 351.36C403.185 351.736 403.585 352.02 404.049 352.212C404.513 352.396 405.033 352.488 405.609 352.488C406.145 352.488 406.605 352.428 406.989 352.308C407.381 352.18 407.717 352.044 407.997 351.9C408.277 351.756 408.509 351.624 408.693 351.504C408.885 351.376 409.049 351.312 409.185 351.312C409.361 351.312 409.497 351.38 409.593 351.516L410.193 352.296Z" fill="black"/>
<path d="M89.7055 388.432V393H88.1535V388.432L83.9535 381.536H85.3135C85.4522 381.536 85.5615 381.571 85.6415 381.64C85.7215 381.704 85.7908 381.789 85.8495 381.896L88.4735 386.352C88.5695 386.539 88.6575 386.715 88.7375 386.88C88.8175 387.04 88.8868 387.203 88.9455 387.368C89.0042 387.203 89.0708 387.04 89.1455 386.88C89.2202 386.715 89.3028 386.539 89.3935 386.352L92.0095 381.896C92.0575 381.805 92.1242 381.723 92.2095 381.648C92.2948 381.573 92.4042 381.536 92.5375 381.536H93.9055L89.7055 388.432ZM96.7159 384.768C97.3079 384.768 97.8412 384.867 98.3159 385.064C98.7905 385.261 99.1959 385.541 99.5319 385.904C99.8679 386.267 100.124 386.707 100.3 387.224C100.481 387.736 100.572 388.309 100.572 388.944C100.572 389.584 100.481 390.16 100.3 390.672C100.124 391.184 99.8679 391.621 99.5319 391.984C99.1959 392.347 98.7905 392.627 98.3159 392.824C97.8412 393.016 97.3079 393.112 96.7159 393.112C96.1185 393.112 95.5799 393.016 95.0999 392.824C94.6252 392.627 94.2199 392.347 93.8839 391.984C93.5479 391.621 93.2892 391.184 93.1079 390.672C92.9319 390.16 92.8439 389.584 92.8439 388.944C92.8439 388.309 92.9319 387.736 93.1079 387.224C93.2892 386.707 93.5479 386.267 93.8839 385.904C94.2199 385.541 94.6252 385.261 95.0999 385.064C95.5799 384.867 96.1185 384.768 96.7159 384.768ZM96.7159 392C97.5159 392 98.1132 391.733 98.5079 391.2C98.9025 390.661 99.0999 389.912 99.0999 388.952C99.0999 387.987 98.9025 387.235 98.5079 386.696C98.1132 386.157 97.5159 385.888 96.7159 385.888C96.3105 385.888 95.9559 385.957 95.6519 386.096C95.3532 386.235 95.1025 386.435 94.8999 386.696C94.7025 386.957 94.5532 387.28 94.4519 387.664C94.3559 388.043 94.3079 388.472 94.3079 388.952C94.3079 389.912 94.5052 390.661 94.8999 391.2C95.2999 391.733 95.9052 392 96.7159 392ZM109.042 384.896V393H108.194C107.991 393 107.863 392.901 107.81 392.704L107.698 391.832C107.346 392.221 106.951 392.536 106.514 392.776C106.077 393.011 105.575 393.128 105.01 393.128C104.567 393.128 104.175 393.056 103.834 392.912C103.498 392.763 103.215 392.555 102.986 392.288C102.757 392.021 102.583 391.699 102.466 391.32C102.354 390.941 102.298 390.523 102.298 390.064V384.896H103.722V390.064C103.722 390.677 103.861 391.152 104.138 391.488C104.421 391.824 104.85 391.992 105.426 391.992C105.847 391.992 106.239 391.893 106.602 391.696C106.97 391.493 107.309 391.216 107.618 390.864V384.896H109.042ZM121.034 386.336C120.991 386.395 120.948 386.44 120.906 386.472C120.863 386.504 120.804 386.52 120.73 386.52C120.65 386.52 120.562 386.488 120.466 386.424C120.37 386.355 120.25 386.28 120.106 386.2C119.967 386.12 119.794 386.048 119.586 385.984C119.383 385.915 119.132 385.88 118.834 385.88C118.434 385.88 118.082 385.952 117.778 386.096C117.474 386.235 117.218 386.437 117.01 386.704C116.807 386.971 116.652 387.293 116.546 387.672C116.444 388.051 116.394 388.475 116.394 388.944C116.394 389.435 116.45 389.872 116.562 390.256C116.674 390.635 116.831 390.955 117.034 391.216C117.242 391.472 117.49 391.669 117.778 391.808C118.071 391.941 118.399 392.008 118.762 392.008C119.108 392.008 119.394 391.968 119.618 391.888C119.842 391.803 120.026 391.709 120.17 391.608C120.319 391.507 120.442 391.416 120.538 391.336C120.639 391.251 120.738 391.208 120.834 391.208C120.951 391.208 121.042 391.253 121.106 391.344L121.506 391.864C121.33 392.083 121.13 392.269 120.906 392.424C120.682 392.579 120.439 392.709 120.178 392.816C119.922 392.917 119.652 392.992 119.37 393.04C119.087 393.088 118.799 393.112 118.506 393.112C117.999 393.112 117.527 393.019 117.09 392.832C116.658 392.645 116.282 392.376 115.962 392.024C115.642 391.667 115.391 391.229 115.21 390.712C115.028 390.195 114.938 389.605 114.938 388.944C114.938 388.341 115.02 387.784 115.186 387.272C115.356 386.76 115.602 386.32 115.922 385.952C116.247 385.579 116.644 385.288 117.114 385.08C117.588 384.872 118.132 384.768 118.746 384.768C119.316 384.768 119.818 384.861 120.25 385.048C120.687 385.229 121.074 385.488 121.41 385.824L121.034 386.336ZM127.426 389.352C126.77 389.373 126.21 389.427 125.746 389.512C125.288 389.592 124.912 389.699 124.618 389.832C124.33 389.965 124.12 390.123 123.986 390.304C123.858 390.485 123.794 390.688 123.794 390.912C123.794 391.125 123.829 391.309 123.898 391.464C123.968 391.619 124.061 391.747 124.178 391.848C124.301 391.944 124.442 392.016 124.602 392.064C124.768 392.107 124.944 392.128 125.13 392.128C125.381 392.128 125.61 392.104 125.818 392.056C126.026 392.003 126.221 391.928 126.402 391.832C126.589 391.736 126.765 391.621 126.93 391.488C127.101 391.355 127.266 391.203 127.426 391.032V389.352ZM122.826 386.04C123.274 385.608 123.757 385.285 124.274 385.072C124.792 384.859 125.365 384.752 125.994 384.752C126.448 384.752 126.85 384.827 127.202 384.976C127.554 385.125 127.85 385.333 128.09 385.6C128.33 385.867 128.512 386.189 128.634 386.568C128.757 386.947 128.818 387.363 128.818 387.816V393H128.186C128.048 393 127.941 392.979 127.866 392.936C127.792 392.888 127.733 392.797 127.69 392.664L127.53 391.896C127.317 392.093 127.109 392.269 126.906 392.424C126.704 392.573 126.49 392.701 126.266 392.808C126.042 392.909 125.802 392.987 125.546 393.04C125.296 393.099 125.016 393.128 124.706 393.128C124.392 393.128 124.096 393.085 123.818 393C123.541 392.909 123.298 392.776 123.09 392.6C122.888 392.424 122.725 392.203 122.602 391.936C122.485 391.664 122.426 391.344 122.426 390.976C122.426 390.656 122.514 390.349 122.69 390.056C122.866 389.757 123.152 389.493 123.546 389.264C123.941 389.035 124.456 388.848 125.09 388.704C125.725 388.555 126.504 388.469 127.426 388.448V387.816C127.426 387.187 127.29 386.712 127.018 386.392C126.746 386.067 126.349 385.904 125.826 385.904C125.474 385.904 125.178 385.949 124.938 386.04C124.704 386.125 124.498 386.224 124.322 386.336C124.152 386.443 124.002 386.541 123.874 386.632C123.752 386.717 123.629 386.76 123.506 386.76C123.41 386.76 123.328 386.736 123.258 386.688C123.189 386.635 123.13 386.571 123.082 386.496L122.826 386.04ZM132.331 386.072C132.507 385.875 132.694 385.696 132.891 385.536C133.089 385.376 133.297 385.24 133.515 385.128C133.739 385.011 133.974 384.923 134.219 384.864C134.47 384.8 134.739 384.768 135.027 384.768C135.47 384.768 135.859 384.843 136.195 384.992C136.537 385.136 136.819 385.344 137.043 385.616C137.273 385.883 137.446 386.205 137.563 386.584C137.681 386.963 137.739 387.381 137.739 387.84V393H136.307V387.84C136.307 387.227 136.166 386.752 135.883 386.416C135.606 386.075 135.182 385.904 134.611 385.904C134.19 385.904 133.795 386.005 133.427 386.208C133.065 386.411 132.729 386.685 132.419 387.032V393H130.987V384.896H131.843C132.046 384.896 132.171 384.995 132.219 385.192L132.331 386.072ZM148.395 389.352C147.739 389.373 147.179 389.427 146.715 389.512C146.256 389.592 145.88 389.699 145.587 389.832C145.299 389.965 145.088 390.123 144.955 390.304C144.827 390.485 144.763 390.688 144.763 390.912C144.763 391.125 144.798 391.309 144.867 391.464C144.936 391.619 145.03 391.747 145.147 391.848C145.27 391.944 145.411 392.016 145.571 392.064C145.736 392.107 145.912 392.128 146.099 392.128C146.35 392.128 146.579 392.104 146.787 392.056C146.995 392.003 147.19 391.928 147.371 391.832C147.558 391.736 147.734 391.621 147.899 391.488C148.07 391.355 148.235 391.203 148.395 391.032V389.352ZM143.795 386.04C144.243 385.608 144.726 385.285 145.243 385.072C145.76 384.859 146.334 384.752 146.963 384.752C147.416 384.752 147.819 384.827 148.171 384.976C148.523 385.125 148.819 385.333 149.059 385.6C149.299 385.867 149.48 386.189 149.603 386.568C149.726 386.947 149.787 387.363 149.787 387.816V393H149.155C149.016 393 148.91 392.979 148.835 392.936C148.76 392.888 148.702 392.797 148.659 392.664L148.499 391.896C148.286 392.093 148.078 392.269 147.875 392.424C147.672 392.573 147.459 392.701 147.235 392.808C147.011 392.909 146.771 392.987 146.515 393.04C146.264 393.099 145.984 393.128 145.675 393.128C145.36 393.128 145.064 393.085 144.787 393C144.51 392.909 144.267 392.776 144.059 392.6C143.856 392.424 143.694 392.203 143.571 391.936C143.454 391.664 143.395 391.344 143.395 390.976C143.395 390.656 143.483 390.349 143.659 390.056C143.835 389.757 144.12 389.493 144.515 389.264C144.91 389.035 145.424 388.848 146.059 388.704C146.694 388.555 147.472 388.469 148.395 388.448V387.816C148.395 387.187 148.259 386.712 147.987 386.392C147.715 386.067 147.318 385.904 146.795 385.904C146.443 385.904 146.147 385.949 145.907 386.04C145.672 386.125 145.467 386.224 145.291 386.336C145.12 386.443 144.971 386.541 144.843 386.632C144.72 386.717 144.598 386.76 144.475 386.76C144.379 386.76 144.296 386.736 144.227 386.688C144.158 386.635 144.099 386.571 144.051 386.496L143.795 386.04ZM157.236 386.824C156.969 386.467 156.681 386.219 156.372 386.08C156.063 385.936 155.716 385.864 155.332 385.864C154.58 385.864 154.001 386.133 153.596 386.672C153.191 387.211 152.988 387.979 152.988 388.976C152.988 389.504 153.033 389.957 153.124 390.336C153.215 390.709 153.348 391.019 153.524 391.264C153.7 391.504 153.916 391.68 154.172 391.792C154.428 391.904 154.719 391.96 155.044 391.96C155.513 391.96 155.921 391.853 156.268 391.64C156.62 391.427 156.943 391.125 157.236 390.736V386.824ZM158.66 381.216V393H157.812C157.609 393 157.481 392.901 157.428 392.704L157.3 391.72C156.953 392.136 156.559 392.472 156.116 392.728C155.673 392.984 155.161 393.112 154.58 393.112C154.116 393.112 153.695 393.024 153.316 392.848C152.937 392.667 152.615 392.403 152.348 392.056C152.081 391.709 151.876 391.277 151.732 390.76C151.588 390.243 151.516 389.648 151.516 388.976C151.516 388.379 151.596 387.824 151.756 387.312C151.916 386.795 152.145 386.347 152.444 385.968C152.743 385.589 153.108 385.293 153.54 385.08C153.977 384.861 154.468 384.752 155.012 384.752C155.508 384.752 155.932 384.837 156.284 385.008C156.641 385.173 156.959 385.405 157.236 385.704V381.216H158.66ZM166.189 386.824C165.923 386.467 165.635 386.219 165.325 386.08C165.016 385.936 164.669 385.864 164.285 385.864C163.533 385.864 162.955 386.133 162.549 386.672C162.144 387.211 161.941 387.979 161.941 388.976C161.941 389.504 161.987 389.957 162.077 390.336C162.168 390.709 162.301 391.019 162.477 391.264C162.653 391.504 162.869 391.68 163.125 391.792C163.381 391.904 163.672 391.96 163.997 391.96C164.467 391.96 164.875 391.853 165.221 391.64C165.573 391.427 165.896 391.125 166.189 390.736V386.824ZM167.613 381.216V393H166.765C166.563 393 166.435 392.901 166.381 392.704L166.253 391.72C165.907 392.136 165.512 392.472 165.069 392.728C164.627 392.984 164.115 393.112 163.533 393.112C163.069 393.112 162.648 393.024 162.269 392.848C161.891 392.667 161.568 392.403 161.301 392.056C161.035 391.709 160.829 391.277 160.685 390.76C160.541 390.243 160.469 389.648 160.469 388.976C160.469 388.379 160.549 387.824 160.709 387.312C160.869 386.795 161.099 386.347 161.397 385.968C161.696 385.589 162.061 385.293 162.493 385.08C162.931 384.861 163.421 384.752 163.965 384.752C164.461 384.752 164.885 384.837 165.237 385.008C165.595 385.173 165.912 385.405 166.189 385.704V381.216H167.613ZM178.348 389.352C177.692 389.373 177.132 389.427 176.668 389.512C176.209 389.592 175.833 389.699 175.54 389.832C175.252 389.965 175.041 390.123 174.908 390.304C174.78 390.485 174.716 390.688 174.716 390.912C174.716 391.125 174.751 391.309 174.82 391.464C174.889 391.619 174.983 391.747 175.1 391.848C175.223 391.944 175.364 392.016 175.524 392.064C175.689 392.107 175.865 392.128 176.052 392.128C176.303 392.128 176.532 392.104 176.74 392.056C176.948 392.003 177.143 391.928 177.324 391.832C177.511 391.736 177.687 391.621 177.852 391.488C178.023 391.355 178.188 391.203 178.348 391.032V389.352ZM173.748 386.04C174.196 385.608 174.679 385.285 175.196 385.072C175.713 384.859 176.287 384.752 176.916 384.752C177.369 384.752 177.772 384.827 178.124 384.976C178.476 385.125 178.772 385.333 179.012 385.6C179.252 385.867 179.433 386.189 179.556 386.568C179.679 386.947 179.74 387.363 179.74 387.816V393H179.108C178.969 393 178.863 392.979 178.788 392.936C178.713 392.888 178.655 392.797 178.612 392.664L178.452 391.896C178.239 392.093 178.031 392.269 177.828 392.424C177.625 392.573 177.412 392.701 177.188 392.808C176.964 392.909 176.724 392.987 176.468 393.04C176.217 393.099 175.937 393.128 175.628 393.128C175.313 393.128 175.017 393.085 174.74 393C174.463 392.909 174.22 392.776 174.012 392.6C173.809 392.424 173.647 392.203 173.524 391.936C173.407 391.664 173.348 391.344 173.348 390.976C173.348 390.656 173.436 390.349 173.612 390.056C173.788 389.757 174.073 389.493 174.468 389.264C174.863 389.035 175.377 388.848 176.012 388.704C176.647 388.555 177.425 388.469 178.348 388.448V387.816C178.348 387.187 178.212 386.712 177.94 386.392C177.668 386.067 177.271 385.904 176.748 385.904C176.396 385.904 176.1 385.949 175.86 386.04C175.625 386.125 175.42 386.224 175.244 386.336C175.073 386.443 174.924 386.541 174.796 386.632C174.673 386.717 174.551 386.76 174.428 386.76C174.332 386.76 174.249 386.736 174.18 386.688C174.111 386.635 174.052 386.571 174.004 386.496L173.748 386.04ZM192.556 384.896L189.252 393H187.972L184.668 384.896H185.828C185.946 384.896 186.042 384.925 186.116 384.984C186.191 385.043 186.242 385.112 186.268 385.192L188.324 390.408C188.388 390.605 188.444 390.797 188.492 390.984C188.54 391.171 188.586 391.357 188.628 391.544C188.671 391.357 188.716 391.171 188.764 390.984C188.812 390.797 188.871 390.605 188.94 390.408L191.02 385.192C191.052 385.107 191.106 385.037 191.18 384.984C191.255 384.925 191.343 384.896 191.444 384.896H192.556ZM198.083 389.352C197.427 389.373 196.867 389.427 196.403 389.512C195.944 389.592 195.568 389.699 195.275 389.832C194.987 389.965 194.776 390.123 194.643 390.304C194.515 390.485 194.451 390.688 194.451 390.912C194.451 391.125 194.485 391.309 194.555 391.464C194.624 391.619 194.717 391.747 194.835 391.848C194.957 391.944 195.099 392.016 195.259 392.064C195.424 392.107 195.6 392.128 195.787 392.128C196.037 392.128 196.267 392.104 196.475 392.056C196.683 392.003 196.877 391.928 197.059 391.832C197.245 391.736 197.421 391.621 197.587 391.488C197.757 391.355 197.923 391.203 198.083 391.032V389.352ZM193.483 386.04C193.931 385.608 194.413 385.285 194.931 385.072C195.448 384.859 196.021 384.752 196.651 384.752C197.104 384.752 197.507 384.827 197.859 384.976C198.211 385.125 198.507 385.333 198.747 385.6C198.987 385.867 199.168 386.189 199.291 386.568C199.413 386.947 199.475 387.363 199.475 387.816V393H198.843C198.704 393 198.597 392.979 198.523 392.936C198.448 392.888 198.389 392.797 198.347 392.664L198.187 391.896C197.973 392.093 197.765 392.269 197.562 392.424C197.36 392.573 197.147 392.701 196.923 392.808C196.699 392.909 196.459 392.987 196.203 393.04C195.952 393.099 195.672 393.128 195.363 393.128C195.048 393.128 194.752 393.085 194.475 393C194.197 392.909 193.955 392.776 193.747 392.6C193.544 392.424 193.381 392.203 193.259 391.936C193.141 391.664 193.083 391.344 193.083 390.976C193.083 390.656 193.171 390.349 193.347 390.056C193.523 389.757 193.808 389.493 194.203 389.264C194.597 389.035 195.112 388.848 195.747 388.704C196.381 388.555 197.16 388.469 198.083 388.448V387.816C198.083 387.187 197.947 386.712 197.675 386.392C197.403 386.067 197.005 385.904 196.483 385.904C196.131 385.904 195.835 385.949 195.595 386.04C195.36 386.125 195.155 386.224 194.979 386.336C194.808 386.443 194.659 386.541 194.531 386.632C194.408 386.717 194.285 386.76 194.163 386.76C194.067 386.76 193.984 386.736 193.915 386.688C193.845 386.635 193.787 386.571 193.738 386.496L193.483 386.04ZM207.284 386.336C207.241 386.395 207.198 386.44 207.156 386.472C207.113 386.504 207.054 386.52 206.98 386.52C206.9 386.52 206.812 386.488 206.716 386.424C206.62 386.355 206.5 386.28 206.356 386.2C206.217 386.12 206.044 386.048 205.836 385.984C205.633 385.915 205.382 385.88 205.084 385.88C204.684 385.88 204.332 385.952 204.028 386.096C203.724 386.235 203.468 386.437 203.26 386.704C203.057 386.971 202.902 387.293 202.796 387.672C202.694 388.051 202.644 388.475 202.644 388.944C202.644 389.435 202.7 389.872 202.812 390.256C202.924 390.635 203.081 390.955 203.284 391.216C203.492 391.472 203.74 391.669 204.028 391.808C204.321 391.941 204.649 392.008 205.012 392.008C205.358 392.008 205.644 391.968 205.868 391.888C206.092 391.803 206.276 391.709 206.42 391.608C206.569 391.507 206.692 391.416 206.788 391.336C206.889 391.251 206.988 391.208 207.084 391.208C207.201 391.208 207.292 391.253 207.356 391.344L207.756 391.864C207.58 392.083 207.38 392.269 207.156 392.424C206.932 392.579 206.689 392.709 206.428 392.816C206.172 392.917 205.902 392.992 205.62 393.04C205.337 393.088 205.049 393.112 204.756 393.112C204.249 393.112 203.777 393.019 203.34 392.832C202.908 392.645 202.532 392.376 202.212 392.024C201.892 391.667 201.641 391.229 201.46 390.712C201.278 390.195 201.188 389.605 201.188 388.944C201.188 388.341 201.27 387.784 201.436 387.272C201.606 386.76 201.852 386.32 202.172 385.952C202.497 385.579 202.894 385.288 203.364 385.08C203.838 384.872 204.382 384.768 204.996 384.768C205.566 384.768 206.068 384.861 206.5 385.048C206.937 385.229 207.324 385.488 207.66 385.824L207.284 386.336ZM214.784 386.336C214.741 386.395 214.698 386.44 214.656 386.472C214.613 386.504 214.554 386.52 214.48 386.52C214.4 386.52 214.312 386.488 214.216 386.424C214.12 386.355 214 386.28 213.856 386.2C213.717 386.12 213.544 386.048 213.336 385.984C213.133 385.915 212.882 385.88 212.584 385.88C212.184 385.88 211.832 385.952 211.528 386.096C211.224 386.235 210.968 386.437 210.76 386.704C210.557 386.971 210.402 387.293 210.296 387.672C210.194 388.051 210.144 388.475 210.144 388.944C210.144 389.435 210.2 389.872 210.312 390.256C210.424 390.635 210.581 390.955 210.784 391.216C210.992 391.472 211.24 391.669 211.528 391.808C211.821 391.941 212.149 392.008 212.512 392.008C212.858 392.008 213.144 391.968 213.368 391.888C213.592 391.803 213.776 391.709 213.92 391.608C214.069 391.507 214.192 391.416 214.288 391.336C214.389 391.251 214.488 391.208 214.584 391.208C214.701 391.208 214.792 391.253 214.856 391.344L215.256 391.864C215.08 392.083 214.88 392.269 214.656 392.424C214.432 392.579 214.189 392.709 213.928 392.816C213.672 392.917 213.402 392.992 213.12 393.04C212.837 393.088 212.549 393.112 212.256 393.112C211.749 393.112 211.277 393.019 210.84 392.832C210.408 392.645 210.032 392.376 209.712 392.024C209.392 391.667 209.141 391.229 208.96 390.712C208.778 390.195 208.688 389.605 208.688 388.944C208.688 388.341 208.77 387.784 208.936 387.272C209.106 386.76 209.352 386.32 209.672 385.952C209.997 385.579 210.394 385.288 210.864 385.08C211.338 384.872 211.882 384.768 212.496 384.768C213.066 384.768 213.568 384.861 214 385.048C214.437 385.229 214.824 385.488 215.16 385.824L214.784 386.336ZM218.288 384.896V393H216.864V384.896H218.288ZM218.592 382.352C218.592 382.491 218.563 382.621 218.504 382.744C218.451 382.861 218.376 382.968 218.28 383.064C218.19 383.155 218.08 383.227 217.952 383.28C217.83 383.333 217.699 383.36 217.56 383.36C217.422 383.36 217.291 383.333 217.168 383.28C217.051 383.227 216.947 383.155 216.856 383.064C216.766 382.968 216.694 382.861 216.64 382.744C216.587 382.621 216.56 382.491 216.56 382.352C216.56 382.213 216.587 382.083 216.64 381.96C216.694 381.832 216.766 381.723 216.856 381.632C216.947 381.536 217.051 381.461 217.168 381.408C217.291 381.355 217.422 381.328 217.56 381.328C217.699 381.328 217.83 381.355 217.952 381.408C218.08 381.461 218.19 381.536 218.28 381.632C218.376 381.723 218.451 381.832 218.504 381.96C218.563 382.083 218.592 382.213 218.592 382.352ZM221.972 386.072C222.148 385.875 222.335 385.696 222.532 385.536C222.729 385.376 222.937 385.24 223.156 385.128C223.38 385.011 223.615 384.923 223.86 384.864C224.111 384.8 224.38 384.768 224.668 384.768C225.111 384.768 225.5 384.843 225.836 384.992C226.177 385.136 226.46 385.344 226.684 385.616C226.913 385.883 227.087 386.205 227.204 386.584C227.321 386.963 227.38 387.381 227.38 387.84V393H225.948V387.84C225.948 387.227 225.807 386.752 225.524 386.416C225.247 386.075 224.823 385.904 224.252 385.904C223.831 385.904 223.436 386.005 223.068 386.208C222.705 386.411 222.369 386.685 222.06 387.032V393H220.628V384.896H221.484C221.687 384.896 221.812 384.995 221.86 385.192L221.972 386.072ZM234.974 388.064C234.974 387.733 234.926 387.432 234.83 387.16C234.739 386.883 234.603 386.645 234.422 386.448C234.246 386.245 234.03 386.091 233.774 385.984C233.518 385.872 233.227 385.816 232.902 385.816C232.219 385.816 231.678 386.016 231.278 386.416C230.883 386.811 230.638 387.36 230.542 388.064H234.974ZM236.126 391.864C235.95 392.077 235.739 392.264 235.494 392.424C235.249 392.579 234.985 392.707 234.702 392.808C234.425 392.909 234.137 392.984 233.838 393.032C233.539 393.085 233.243 393.112 232.95 393.112C232.39 393.112 231.873 393.019 231.398 392.832C230.929 392.64 230.521 392.363 230.174 392C229.833 391.632 229.566 391.179 229.374 390.64C229.182 390.101 229.086 389.483 229.086 388.784C229.086 388.219 229.171 387.691 229.342 387.2C229.518 386.709 229.769 386.285 230.094 385.928C230.419 385.565 230.817 385.283 231.286 385.08C231.755 384.872 232.283 384.768 232.87 384.768C233.355 384.768 233.803 384.851 234.214 385.016C234.63 385.176 234.987 385.411 235.286 385.72C235.59 386.024 235.827 386.403 235.998 386.856C236.169 387.304 236.254 387.816 236.254 388.392C236.254 388.616 236.23 388.765 236.182 388.84C236.134 388.915 236.043 388.952 235.91 388.952H230.494C230.51 389.464 230.579 389.909 230.702 390.288C230.83 390.667 231.006 390.984 231.23 391.24C231.454 391.491 231.721 391.68 232.03 391.808C232.339 391.931 232.686 391.992 233.07 391.992C233.427 391.992 233.734 391.952 233.99 391.872C234.251 391.787 234.475 391.696 234.662 391.6C234.849 391.504 235.003 391.416 235.126 391.336C235.254 391.251 235.363 391.208 235.454 391.208C235.571 391.208 235.662 391.253 235.726 391.344L236.126 391.864ZM242.625 393V386.112L241.729 386.008C241.617 385.981 241.523 385.941 241.449 385.888C241.379 385.829 241.345 385.747 241.345 385.64V385.056H242.625V384.272C242.625 383.808 242.689 383.397 242.817 383.04C242.95 382.677 243.137 382.373 243.377 382.128C243.622 381.877 243.915 381.688 244.257 381.56C244.598 381.432 244.982 381.368 245.409 381.368C245.771 381.368 246.105 381.421 246.409 381.528L246.377 382.24C246.366 382.368 246.294 382.437 246.161 382.448C246.033 382.459 245.859 382.464 245.641 382.464C245.395 382.464 245.171 382.496 244.969 382.56C244.771 382.624 244.601 382.728 244.457 382.872C244.313 383.016 244.201 383.205 244.121 383.44C244.046 383.675 244.009 383.965 244.009 384.312V385.056H246.345V386.088H244.057V393H242.625ZM249.058 386.52C249.314 385.965 249.629 385.533 250.002 385.224C250.375 384.909 250.831 384.752 251.37 384.752C251.541 384.752 251.703 384.771 251.858 384.808C252.018 384.845 252.159 384.904 252.282 384.984L252.178 386.048C252.146 386.181 252.066 386.248 251.938 386.248C251.863 386.248 251.754 386.232 251.61 386.2C251.466 386.168 251.303 386.152 251.122 386.152C250.866 386.152 250.637 386.189 250.434 386.264C250.237 386.339 250.058 386.451 249.898 386.6C249.743 386.744 249.602 386.925 249.474 387.144C249.351 387.357 249.239 387.603 249.138 387.88V393H247.706V384.896H248.522C248.677 384.896 248.783 384.925 248.842 384.984C248.901 385.043 248.941 385.144 248.962 385.288L249.058 386.52ZM256.622 384.768C257.214 384.768 257.747 384.867 258.222 385.064C258.697 385.261 259.102 385.541 259.438 385.904C259.774 386.267 260.03 386.707 260.206 387.224C260.387 387.736 260.478 388.309 260.478 388.944C260.478 389.584 260.387 390.16 260.206 390.672C260.03 391.184 259.774 391.621 259.438 391.984C259.102 392.347 258.697 392.627 258.222 392.824C257.747 393.016 257.214 393.112 256.622 393.112C256.025 393.112 255.486 393.016 255.006 392.824C254.531 392.627 254.126 392.347 253.79 391.984C253.454 391.621 253.195 391.184 253.014 390.672C252.838 390.16 252.75 389.584 252.75 388.944C252.75 388.309 252.838 387.736 253.014 387.224C253.195 386.707 253.454 386.267 253.79 385.904C254.126 385.541 254.531 385.261 255.006 385.064C255.486 384.867 256.025 384.768 256.622 384.768ZM256.622 392C257.422 392 258.019 391.733 258.414 391.2C258.809 390.661 259.006 389.912 259.006 388.952C259.006 387.987 258.809 387.235 258.414 386.696C258.019 386.157 257.422 385.888 256.622 385.888C256.217 385.888 255.862 385.957 255.558 386.096C255.259 386.235 255.009 386.435 254.806 386.696C254.609 386.957 254.459 387.28 254.358 387.664C254.262 388.043 254.214 388.472 254.214 388.952C254.214 389.912 254.411 390.661 254.806 391.2C255.206 391.733 255.811 392 256.622 392ZM262.284 393V384.896H263.14C263.343 384.896 263.468 384.995 263.516 385.192L263.62 386.024C263.919 385.656 264.255 385.355 264.628 385.12C265.002 384.885 265.434 384.768 265.924 384.768C266.468 384.768 266.908 384.92 267.244 385.224C267.586 385.528 267.831 385.939 267.98 386.456C268.098 386.163 268.247 385.909 268.428 385.696C268.615 385.483 268.823 385.307 269.052 385.168C269.282 385.029 269.524 384.928 269.78 384.864C270.042 384.8 270.306 384.768 270.572 384.768C270.999 384.768 271.378 384.837 271.708 384.976C272.044 385.109 272.327 385.307 272.556 385.568C272.791 385.829 272.97 386.152 273.092 386.536C273.215 386.915 273.276 387.349 273.276 387.84V393H271.844V387.84C271.844 387.205 271.706 386.725 271.428 386.4C271.151 386.069 270.751 385.904 270.228 385.904C269.994 385.904 269.77 385.947 269.556 386.032C269.348 386.112 269.164 386.232 269.004 386.392C268.844 386.552 268.716 386.755 268.62 387C268.53 387.24 268.484 387.52 268.484 387.84V393H267.052V387.84C267.052 387.189 266.922 386.704 266.66 386.384C266.399 386.064 266.018 385.904 265.516 385.904C265.164 385.904 264.839 386 264.54 386.192C264.242 386.379 263.967 386.635 263.716 386.96V393H262.284ZM282.022 393.128C281.382 393.128 280.889 392.949 280.542 392.592C280.201 392.235 280.03 391.72 280.03 391.048V386.088H279.054C278.969 386.088 278.897 386.064 278.838 386.016C278.78 385.963 278.75 385.883 278.75 385.776V385.208L280.078 385.04L280.406 382.536C280.422 382.456 280.457 382.392 280.51 382.344C280.569 382.291 280.644 382.264 280.734 382.264H281.454V385.056H283.798V386.088H281.454V390.952C281.454 391.293 281.537 391.547 281.702 391.712C281.868 391.877 282.081 391.96 282.342 391.96C282.492 391.96 282.62 391.941 282.726 391.904C282.838 391.861 282.934 391.816 283.014 391.768C283.094 391.72 283.161 391.677 283.214 391.64C283.273 391.597 283.324 391.576 283.366 391.576C283.441 391.576 283.508 391.621 283.566 391.712L283.982 392.392C283.737 392.621 283.441 392.803 283.094 392.936C282.748 393.064 282.39 393.128 282.022 393.128ZM286.701 385.976C287.047 385.608 287.431 385.315 287.853 385.096C288.274 384.877 288.759 384.768 289.309 384.768C289.751 384.768 290.141 384.843 290.477 384.992C290.818 385.136 291.101 385.344 291.325 385.616C291.554 385.883 291.727 386.205 291.845 386.584C291.962 386.963 292.021 387.381 292.021 387.84V393H290.589V387.84C290.589 387.227 290.447 386.752 290.165 386.416C289.887 386.075 289.463 385.904 288.893 385.904C288.471 385.904 288.077 386.005 287.709 386.208C287.346 386.411 287.01 386.685 286.701 387.032V393H285.269V381.216H286.701V385.976ZM299.615 388.064C299.615 387.733 299.567 387.432 299.471 387.16C299.38 386.883 299.244 386.645 299.063 386.448C298.887 386.245 298.671 386.091 298.415 385.984C298.159 385.872 297.868 385.816 297.543 385.816C296.86 385.816 296.319 386.016 295.919 386.416C295.524 386.811 295.279 387.36 295.183 388.064H299.615ZM300.767 391.864C300.591 392.077 300.38 392.264 300.135 392.424C299.889 392.579 299.625 392.707 299.343 392.808C299.065 392.909 298.777 392.984 298.479 393.032C298.18 393.085 297.884 393.112 297.591 393.112C297.031 393.112 296.513 393.019 296.039 392.832C295.569 392.64 295.161 392.363 294.815 392C294.473 391.632 294.207 391.179 294.015 390.64C293.823 390.101 293.727 389.483 293.727 388.784C293.727 388.219 293.812 387.691 293.983 387.2C294.159 386.709 294.409 386.285 294.735 385.928C295.06 385.565 295.457 385.283 295.927 385.08C296.396 384.872 296.924 384.768 297.511 384.768C297.996 384.768 298.444 384.851 298.855 385.016C299.271 385.176 299.628 385.411 299.927 385.72C300.231 386.024 300.468 386.403 300.639 386.856C300.809 387.304 300.895 387.816 300.895 388.392C300.895 388.616 300.871 388.765 300.823 388.84C300.775 388.915 300.684 388.952 300.551 388.952H295.135C295.151 389.464 295.22 389.909 295.343 390.288C295.471 390.667 295.647 390.984 295.871 391.24C296.095 391.491 296.361 391.68 296.671 391.808C296.98 391.931 297.327 391.992 297.711 391.992C298.068 391.992 298.375 391.952 298.631 391.872C298.892 391.787 299.116 391.696 299.303 391.6C299.489 391.504 299.644 391.416 299.767 391.336C299.895 391.251 300.004 391.208 300.095 391.208C300.212 391.208 300.303 391.253 300.367 391.344L300.767 391.864ZM307.569 387.968C307.569 389.109 307.713 390.219 308.001 391.296C308.295 392.373 308.721 393.397 309.281 394.368C309.367 394.533 309.388 394.659 309.345 394.744C309.303 394.835 309.241 394.907 309.161 394.96L308.529 395.344C308.129 394.731 307.788 394.123 307.505 393.52C307.228 392.917 307.001 392.312 306.825 391.704C306.655 391.096 306.529 390.485 306.449 389.872C306.369 389.253 306.329 388.619 306.329 387.968C306.329 387.323 306.369 386.691 306.449 386.072C306.529 385.453 306.655 384.843 306.825 384.24C307.001 383.632 307.228 383.027 307.505 382.424C307.788 381.821 308.129 381.211 308.529 380.592L309.161 380.984C309.241 381.037 309.303 381.109 309.345 381.2C309.388 381.285 309.367 381.408 309.281 381.568C308.721 382.539 308.295 383.563 308.001 384.64C307.713 385.717 307.569 386.827 307.569 387.968ZM318.355 388.168H315.091V391.608H313.931V388.168H310.683V387.088H313.931V383.672H315.091V387.088H318.355V388.168ZM321.468 387.968C321.468 386.827 321.322 385.717 321.028 384.64C320.74 383.563 320.316 382.539 319.756 381.568C319.714 381.488 319.687 381.419 319.676 381.36C319.666 381.296 319.668 381.243 319.684 381.2C319.7 381.152 319.724 381.112 319.756 381.08C319.794 381.043 319.834 381.011 319.876 380.984L320.508 380.592C320.908 381.211 321.247 381.821 321.524 382.424C321.807 383.027 322.034 383.632 322.204 384.24C322.38 384.843 322.508 385.453 322.588 386.072C322.668 386.691 322.708 387.323 322.708 387.968C322.708 388.619 322.668 389.253 322.588 389.872C322.508 390.485 322.38 391.096 322.204 391.704C322.034 392.312 321.807 392.917 321.524 393.52C321.247 394.123 320.908 394.731 320.508 395.344L319.876 394.96C319.834 394.933 319.794 394.901 319.756 394.864C319.724 394.832 319.7 394.792 319.684 394.744C319.668 394.701 319.666 394.648 319.676 394.584C319.687 394.52 319.714 394.448 319.756 394.368C320.316 393.397 320.74 392.373 321.028 391.296C321.322 390.219 321.468 389.109 321.468 387.968ZM330.076 391.048C330.337 391.4 330.622 391.648 330.932 391.792C331.246 391.936 331.59 392.008 331.964 392.008C332.726 392.008 333.31 391.739 333.716 391.2C334.121 390.661 334.324 389.859 334.324 388.792C334.324 387.8 334.142 387.072 333.78 386.608C333.422 386.139 332.91 385.904 332.244 385.904C331.78 385.904 331.374 386.011 331.028 386.224C330.686 386.437 330.369 386.739 330.076 387.128V391.048ZM330.076 386.064C330.417 385.669 330.801 385.355 331.228 385.12C331.66 384.885 332.156 384.768 332.716 384.768C333.19 384.768 333.617 384.859 333.996 385.04C334.38 385.221 334.705 385.485 334.972 385.832C335.238 386.173 335.441 386.589 335.58 387.08C335.724 387.571 335.796 388.123 335.796 388.736C335.796 389.392 335.716 389.989 335.556 390.528C335.396 391.067 335.164 391.528 334.86 391.912C334.561 392.291 334.196 392.587 333.764 392.8C333.332 393.008 332.846 393.112 332.308 393.112C331.774 393.112 331.324 393.013 330.956 392.816C330.593 392.613 330.276 392.328 330.004 391.96L329.932 392.696C329.889 392.899 329.766 393 329.564 393H328.644V381.216H330.076V386.064ZM344.261 384.896V393H343.413C343.21 393 343.082 392.901 343.029 392.704L342.917 391.832C342.565 392.221 342.17 392.536 341.733 392.776C341.295 393.011 340.794 393.128 340.229 393.128C339.786 393.128 339.394 393.056 339.053 392.912C338.717 392.763 338.434 392.555 338.205 392.288C337.975 392.021 337.802 391.699 337.685 391.32C337.573 390.941 337.517 390.523 337.517 390.064V384.896H338.941V390.064C338.941 390.677 339.079 391.152 339.357 391.488C339.639 391.824 340.069 391.992 340.645 391.992C341.066 391.992 341.458 391.893 341.821 391.696C342.189 391.493 342.527 391.216 342.837 390.864V384.896H344.261ZM349.007 393.128C348.367 393.128 347.873 392.949 347.527 392.592C347.185 392.235 347.015 391.72 347.015 391.048V386.088H346.039C345.953 386.088 345.881 386.064 345.823 386.016C345.764 385.963 345.735 385.883 345.735 385.776V385.208L347.063 385.04L347.391 382.536C347.407 382.456 347.441 382.392 347.495 382.344C347.553 382.291 347.628 382.264 347.719 382.264H348.439V385.056H352.255L352.583 382.536C352.599 382.456 352.633 382.392 352.687 382.344C352.745 382.291 352.82 382.264 352.911 382.264H353.631V385.056H355.975V386.088H353.631V390.952C353.631 391.293 353.713 391.547 353.879 391.712C354.049 391.877 354.263 391.96 354.519 391.96C354.668 391.96 354.796 391.941 354.903 391.904C355.015 391.861 355.111 391.816 355.191 391.768C355.271 391.72 355.337 391.677 355.391 391.64C355.449 391.597 355.5 391.576 355.543 391.576C355.623 391.576 355.689 391.621 355.743 391.712L356.167 392.392C355.916 392.621 355.617 392.803 355.271 392.936C354.924 393.064 354.567 393.128 354.199 393.128C353.564 393.128 353.073 392.949 352.727 392.592C352.38 392.235 352.207 391.72 352.207 391.048V386.088H348.439V390.952C348.439 391.293 348.521 391.547 348.687 391.712C348.852 391.877 349.065 391.96 349.327 391.96C349.476 391.96 349.604 391.941 349.711 391.904C349.823 391.861 349.919 391.816 349.999 391.768C350.079 391.72 350.145 391.677 350.199 391.64C350.257 391.597 350.308 391.576 350.351 391.576C350.425 391.576 350.492 391.621 350.551 391.712L350.967 392.392C350.721 392.621 350.425 392.803 350.079 392.936C349.732 393.064 349.375 393.128 349.007 393.128ZM360.81 384.768C361.402 384.768 361.935 384.867 362.41 385.064C362.884 385.261 363.29 385.541 363.626 385.904C363.962 386.267 364.218 386.707 364.394 387.224C364.575 387.736 364.666 388.309 364.666 388.944C364.666 389.584 364.575 390.16 364.394 390.672C364.218 391.184 363.962 391.621 363.626 391.984C363.29 392.347 362.884 392.627 362.41 392.824C361.935 393.016 361.402 393.112 360.81 393.112C360.212 393.112 359.674 393.016 359.194 392.824C358.719 392.627 358.314 392.347 357.978 391.984C357.642 391.621 357.383 391.184 357.202 390.672C357.026 390.16 356.938 389.584 356.938 388.944C356.938 388.309 357.026 387.736 357.202 387.224C357.383 386.707 357.642 386.267 357.978 385.904C358.314 385.541 358.719 385.261 359.194 385.064C359.674 384.867 360.212 384.768 360.81 384.768ZM360.81 392C361.61 392 362.207 391.733 362.602 391.2C362.996 390.661 363.194 389.912 363.194 388.952C363.194 387.987 362.996 387.235 362.602 386.696C362.207 386.157 361.61 385.888 360.81 385.888C360.404 385.888 360.05 385.957 359.746 386.096C359.447 386.235 359.196 386.435 358.994 386.696C358.796 386.957 358.647 387.28 358.546 387.664C358.45 388.043 358.402 388.472 358.402 388.952C358.402 389.912 358.599 390.661 358.994 391.2C359.394 391.733 359.999 392 360.81 392ZM367.816 386.072C367.992 385.875 368.178 385.696 368.376 385.536C368.573 385.376 368.781 385.24 369 385.128C369.224 385.011 369.458 384.923 369.704 384.864C369.954 384.8 370.224 384.768 370.512 384.768C370.954 384.768 371.344 384.843 371.68 384.992C372.021 385.136 372.304 385.344 372.528 385.616C372.757 385.883 372.93 386.205 373.048 386.584C373.165 386.963 373.224 387.381 373.224 387.84V393H371.792V387.84C371.792 387.227 371.65 386.752 371.368 386.416C371.09 386.075 370.666 385.904 370.096 385.904C369.674 385.904 369.28 386.005 368.912 386.208C368.549 386.411 368.213 386.685 367.904 387.032V393H366.472V384.896H367.328C367.53 384.896 367.656 384.995 367.704 385.192L367.816 386.072ZM380.919 391.048C381.181 391.4 381.466 391.648 381.775 391.792C382.09 391.936 382.434 392.008 382.807 392.008C383.57 392.008 384.154 391.739 384.559 391.2C384.965 390.661 385.167 389.859 385.167 388.792C385.167 387.8 384.986 387.072 384.623 386.608C384.266 386.139 383.754 385.904 383.087 385.904C382.623 385.904 382.218 386.011 381.871 386.224C381.53 386.437 381.213 386.739 380.919 387.128V391.048ZM380.919 386.064C381.261 385.669 381.645 385.355 382.071 385.12C382.503 384.885 382.999 384.768 383.559 384.768C384.034 384.768 384.461 384.859 384.839 385.04C385.223 385.221 385.549 385.485 385.815 385.832C386.082 386.173 386.285 386.589 386.423 387.08C386.567 387.571 386.639 388.123 386.639 388.736C386.639 389.392 386.559 389.989 386.399 390.528C386.239 391.067 386.007 391.528 385.703 391.912C385.405 392.291 385.039 392.587 384.607 392.8C384.175 393.008 383.69 393.112 383.151 393.112C382.618 393.112 382.167 393.013 381.799 392.816C381.437 392.613 381.119 392.328 380.847 391.96L380.775 392.696C380.733 392.899 380.61 393 380.407 393H379.487V381.216H380.919V386.064ZM393.865 388.064C393.865 387.733 393.817 387.432 393.721 387.16C393.63 386.883 393.494 386.645 393.313 386.448C393.137 386.245 392.921 386.091 392.665 385.984C392.409 385.872 392.118 385.816 391.793 385.816C391.11 385.816 390.569 386.016 390.169 386.416C389.774 386.811 389.529 387.36 389.433 388.064H393.865ZM395.017 391.864C394.841 392.077 394.63 392.264 394.385 392.424C394.139 392.579 393.875 392.707 393.593 392.808C393.315 392.909 393.027 392.984 392.729 393.032C392.43 393.085 392.134 393.112 391.841 393.112C391.281 393.112 390.763 393.019 390.289 392.832C389.819 392.64 389.411 392.363 389.065 392C388.723 391.632 388.457 391.179 388.265 390.64C388.073 390.101 387.977 389.483 387.977 388.784C387.977 388.219 388.062 387.691 388.233 387.2C388.409 386.709 388.659 386.285 388.985 385.928C389.31 385.565 389.707 385.283 390.177 385.08C390.646 384.872 391.174 384.768 391.761 384.768C392.246 384.768 392.694 384.851 393.105 385.016C393.521 385.176 393.878 385.411 394.177 385.72C394.481 386.024 394.718 386.403 394.889 386.856C395.059 387.304 395.145 387.816 395.145 388.392C395.145 388.616 395.121 388.765 395.073 388.84C395.025 388.915 394.934 388.952 394.801 388.952H389.385C389.401 389.464 389.47 389.909 389.593 390.288C389.721 390.667 389.897 390.984 390.121 391.24C390.345 391.491 390.611 391.68 390.921 391.808C391.23 391.931 391.577 391.992 391.961 391.992C392.318 391.992 392.625 391.952 392.881 391.872C393.142 391.787 393.366 391.696 393.553 391.6C393.739 391.504 393.894 391.416 394.017 391.336C394.145 391.251 394.254 391.208 394.345 391.208C394.462 391.208 394.553 391.253 394.617 391.344L395.017 391.864ZM398.366 381.216V393H396.942V381.216H398.366ZM404.091 384.768C404.683 384.768 405.216 384.867 405.691 385.064C406.166 385.261 406.571 385.541 406.907 385.904C407.243 386.267 407.499 386.707 407.675 387.224C407.856 387.736 407.947 388.309 407.947 388.944C407.947 389.584 407.856 390.16 407.675 390.672C407.499 391.184 407.243 391.621 406.907 391.984C406.571 392.347 406.166 392.627 405.691 392.824C405.216 393.016 404.683 393.112 404.091 393.112C403.494 393.112 402.955 393.016 402.475 392.824C402 392.627 401.595 392.347 401.259 391.984C400.923 391.621 400.664 391.184 400.483 390.672C400.307 390.16 400.219 389.584 400.219 388.944C400.219 388.309 400.307 387.736 400.483 387.224C400.664 386.707 400.923 386.267 401.259 385.904C401.595 385.541 402 385.261 402.475 385.064C402.955 384.867 403.494 384.768 404.091 384.768ZM404.091 392C404.891 392 405.488 391.733 405.883 391.2C406.278 390.661 406.475 389.912 406.475 388.952C406.475 387.987 406.278 387.235 405.883 386.696C405.488 386.157 404.891 385.888 404.091 385.888C403.686 385.888 403.331 385.957 403.027 386.096C402.728 386.235 402.478 386.435 402.275 386.696C402.078 386.957 401.928 387.28 401.827 387.664C401.731 388.043 401.683 388.472 401.683 388.952C401.683 389.912 401.88 390.661 402.275 391.2C402.675 391.733 403.28 392 404.091 392ZM420.804 384.896L418.18 393H417.052C416.913 393 416.817 392.909 416.764 392.728L414.972 387.232C414.929 387.109 414.895 386.987 414.868 386.864C414.841 386.736 414.815 386.611 414.788 386.488C414.761 386.611 414.735 386.736 414.708 386.864C414.681 386.987 414.647 387.112 414.604 387.24L412.78 392.728C412.732 392.909 412.625 393 412.46 393H411.388L408.764 384.896H409.884C409.996 384.896 410.089 384.925 410.164 384.984C410.244 385.043 410.297 385.112 410.324 385.192L411.876 390.408C411.967 390.792 412.039 391.155 412.092 391.496C412.14 391.32 412.188 391.141 412.236 390.96C412.289 390.779 412.345 390.595 412.404 390.408L414.116 385.16C414.143 385.08 414.188 385.013 414.252 384.96C414.321 384.907 414.404 384.88 414.5 384.88H415.124C415.231 384.88 415.319 384.907 415.388 384.96C415.457 385.013 415.505 385.08 415.532 385.16L417.204 390.408C417.263 390.595 417.316 390.779 417.364 390.96C417.412 391.141 417.457 391.32 417.5 391.496C417.527 391.32 417.559 391.144 417.596 390.968C417.639 390.787 417.684 390.6 417.732 390.408L419.316 385.192C419.343 385.107 419.393 385.037 419.468 384.984C419.543 384.925 419.631 384.896 419.732 384.896H420.804Z" fill="#A0A4A8"/>
<g clip-path="url(#clip0_49_161)">
<path d="M355.574 228.758C354.677 227.827 354.119 226.537 354.108 225.106C354.087 222.244 356.277 219.908 358.996 219.892L455.92 219.21C458.642 219.191 460.859 221.493 460.874 224.354C460.895 227.216 458.705 229.551 455.986 229.568L359.061 230.25C357.703 230.26 356.469 229.688 355.574 228.758Z" fill="#9FA4A5"/>
<path d="M102.034 206.161L102.297 247.573L149.415 247.242L149.153 205.83L102.034 206.161Z" fill="#B8BFC1"/>
<path d="M348.468 184.641L396.863 220.827C399.455 222.765 399.478 226.802 396.913 228.779L348.981 265.641C348.192 266.247 347.242 266.576 346.265 266.583L141.961 268.021C139.391 268.039 137.292 265.86 137.275 263.155L136.813 190.101C136.796 187.396 138.866 185.187 141.436 185.169L345.741 183.737C346.717 183.73 347.672 184.046 348.468 184.641Z" fill="#B0DCF7"/>
<path d="M89.669 175.05L90.3264 278.866C90.3459 281.948 92.7362 284.431 95.6648 284.41L100.503 284.376C103.432 284.356 105.791 281.84 105.771 278.758L105.111 174.939C105.092 171.857 102.702 169.374 99.7729 169.395L94.9344 169.429C92.0058 169.454 89.6495 171.967 89.669 175.05Z" fill="#9FA4A5"/>
<path d="M136.715 174.72L137.373 278.536C137.392 281.618 139.783 284.101 142.711 284.08L147.55 284.046C150.478 284.026 152.837 281.51 152.817 278.428L152.16 174.611C152.141 171.529 149.75 169.047 146.822 169.067L141.983 169.101C139.054 169.122 136.696 171.638 136.715 174.72Z" fill="#9FA4A5"/>
<path d="M283.081 225.604L283.343 267.032L296.472 266.94L296.21 225.512C296.186 221.695 293.228 218.623 289.601 218.649C285.975 218.674 283.056 221.787 283.081 225.604Z" fill="#66A8D1"/>
<path d="M247.261 225.852L247.523 267.281L260.652 267.189L260.39 225.76C260.366 221.944 257.408 218.872 253.781 218.898C250.157 218.925 247.236 222.041 247.261 225.852Z" fill="#66A8D1"/>
<path d="M211.441 226.106L211.703 267.534L224.832 267.442L224.57 226.014C224.546 222.197 221.588 219.126 217.961 219.151C214.337 219.179 211.419 222.292 211.441 226.106Z" fill="#66A8D1"/>
<path d="M370.821 248.848L396.916 228.781C399.483 226.807 399.455 222.77 396.866 220.83L370.519 201.131L370.821 248.848Z" fill="#9FA4A5"/>
</g>
<defs>
<clipPath id="clip0_49_161">
<rect width="311.768" height="311.98" fill="white" transform="matrix(0.693627 0.720335 -0.683977 0.729503 249.266 0)"/>
</clipPath>
</defs>
</svg>
